<mxfile host="Electron" modified="2023-11-13T10:34:54.703Z" agent="Mozilla/5.0 (Windows NT 10.0; Win64; x64) AppleWebKit/537.36 (KHTML, like Gecko) draw.io/22.0.3 Chrome/114.0.5735.289 Electron/25.8.4 Safari/537.36" etag="aiqhU_KNn_JH8y5fM7fZ" version="22.0.3" type="device">
  <diagram name="Page-1" id="eGCmOLTAfqKmffTol8L3">
    <mxGraphModel dx="819" dy="505" grid="1" gridSize="10" guides="1" tooltips="1" connect="1" arrows="1" fold="1" page="1" pageScale="1" pageWidth="850" pageHeight="1100" math="1" shadow="0">
      <root>
        <mxCell id="0" />
        <mxCell id="1" parent="0" />
        <mxCell id="9xz5QRRFjC8Fba8MNgj_-16" value="" style="shape=tape;whiteSpace=wrap;html=1;" vertex="1" parent="1">
          <mxGeometry x="240" y="180" width="120" height="100" as="geometry" />
        </mxCell>
        <mxCell id="9xz5QRRFjC8Fba8MNgj_-1" value="" style="endArrow=classic;html=1;rounded=0;" edge="1" parent="1">
          <mxGeometry width="50" height="50" relative="1" as="geometry">
            <mxPoint x="160" y="360" as="sourcePoint" />
            <mxPoint x="160" y="120" as="targetPoint" />
          </mxGeometry>
        </mxCell>
        <mxCell id="9xz5QRRFjC8Fba8MNgj_-2" value="" style="endArrow=classic;html=1;rounded=0;" edge="1" parent="1">
          <mxGeometry width="50" height="50" relative="1" as="geometry">
            <mxPoint x="120" y="320" as="sourcePoint" />
            <mxPoint x="480" y="320" as="targetPoint" />
          </mxGeometry>
        </mxCell>
        <mxCell id="9xz5QRRFjC8Fba8MNgj_-21" style="edgeStyle=orthogonalEdgeStyle;rounded=0;orthogonalLoop=1;jettySize=auto;html=1;" edge="1" parent="1" source="9xz5QRRFjC8Fba8MNgj_-9">
          <mxGeometry relative="1" as="geometry">
            <mxPoint x="345" y="100" as="targetPoint" />
          </mxGeometry>
        </mxCell>
        <mxCell id="9xz5QRRFjC8Fba8MNgj_-9" value="" style="shape=ellipse;fillColor=#000000;strokeColor=none;html=1;sketch=0;" vertex="1" parent="1">
          <mxGeometry x="340" y="180" width="10" height="10" as="geometry" />
        </mxCell>
        <mxCell id="9xz5QRRFjC8Fba8MNgj_-19" style="edgeStyle=orthogonalEdgeStyle;rounded=0;orthogonalLoop=1;jettySize=auto;html=1;" edge="1" parent="1" source="9xz5QRRFjC8Fba8MNgj_-13">
          <mxGeometry relative="1" as="geometry">
            <mxPoint x="255" y="140" as="targetPoint" />
          </mxGeometry>
        </mxCell>
        <mxCell id="9xz5QRRFjC8Fba8MNgj_-13" value="" style="shape=ellipse;fillColor=#000000;strokeColor=none;html=1;sketch=0;" vertex="1" parent="1">
          <mxGeometry x="250" y="225" width="10" height="10" as="geometry" />
        </mxCell>
        <mxCell id="9xz5QRRFjC8Fba8MNgj_-15" value="$$A$$" style="text;html=1;strokeColor=none;fillColor=none;align=center;verticalAlign=middle;whiteSpace=wrap;rounded=0;" vertex="1" parent="1">
          <mxGeometry x="285" y="215" width="30" height="30" as="geometry" />
        </mxCell>
        <mxCell id="9xz5QRRFjC8Fba8MNgj_-17" value="$$y$$" style="text;html=1;strokeColor=none;fillColor=none;align=center;verticalAlign=middle;whiteSpace=wrap;rounded=0;" vertex="1" parent="1">
          <mxGeometry x="130" y="110" width="30" height="30" as="geometry" />
        </mxCell>
        <mxCell id="9xz5QRRFjC8Fba8MNgj_-18" value="$$x$$" style="text;html=1;strokeColor=none;fillColor=none;align=center;verticalAlign=middle;whiteSpace=wrap;rounded=0;" vertex="1" parent="1">
          <mxGeometry x="460" y="320" width="30" height="30" as="geometry" />
        </mxCell>
        <mxCell id="9xz5QRRFjC8Fba8MNgj_-20" value="$$\text{Punto interno}$$" style="text;html=1;strokeColor=none;fillColor=none;align=center;verticalAlign=middle;whiteSpace=wrap;rounded=0;" vertex="1" parent="1">
          <mxGeometry x="210" y="110" width="90" height="30" as="geometry" />
        </mxCell>
        <mxCell id="9xz5QRRFjC8Fba8MNgj_-22" value="$$\text{Punto di frontiera}$$" style="text;html=1;strokeColor=none;fillColor=none;align=center;verticalAlign=middle;whiteSpace=wrap;rounded=0;" vertex="1" parent="1">
          <mxGeometry x="285" y="70" width="120" height="30" as="geometry" />
        </mxCell>
        <mxCell id="9xz5QRRFjC8Fba8MNgj_-25" style="edgeStyle=orthogonalEdgeStyle;rounded=0;orthogonalLoop=1;jettySize=auto;html=1;" edge="1" parent="1" source="9xz5QRRFjC8Fba8MNgj_-24">
          <mxGeometry relative="1" as="geometry">
            <mxPoint x="430" y="230" as="targetPoint" />
          </mxGeometry>
        </mxCell>
        <mxCell id="9xz5QRRFjC8Fba8MNgj_-24" value="" style="shape=ellipse;fillColor=#000000;strokeColor=none;html=1;sketch=0;" vertex="1" parent="1">
          <mxGeometry x="425" y="265" width="10" height="10" as="geometry" />
        </mxCell>
        <mxCell id="9xz5QRRFjC8Fba8MNgj_-26" value="$$\text{Punto esterno}$$" style="text;html=1;strokeColor=none;fillColor=none;align=center;verticalAlign=middle;whiteSpace=wrap;rounded=0;" vertex="1" parent="1">
          <mxGeometry x="370" y="200" width="120" height="30" as="geometry" />
        </mxCell>
      </root>
    </mxGraphModel>
  </diagram>
</mxfile>
